/* XPM */
static char *bulletGreen2_outline[] = {
/* columns rows colors chars-per-pixel */
"24 32 21 1 ",
"  c None",
". c #197942",
"X c #187943",
"o c #1A7842",
"O c #1A7942",
"+ c #1A7A42",
"@ c #1A7B44",
"# c #1A7E45",
"$ c #1E8B4C",
"% c #1E8E4E",
"& c #1F9150",
"* c #229E57",
"= c #23A259",
"- c #24A55A",
"; c #26AB5E",
": c #27AF60",
"> c #2ECC71",
", c #697F81",
"< c #6A7F81",
"1 c #6B8183",
"2 c #89A4A6",
/* pixels */
"        ++++++++        ",
"     +@@@@@@@@@@@@+     ",
"    @@@@@@@@@@@@@@@@    ",
"   +@@@@@@@@@@@@@@@@+   ",
"  +@@@@#%*====*%#@@@@+  ",
" +@@@@$;::::::::;$@@@@+ ",
" @@@@%::::::::::::%@@@@ ",
" @@@#;::::::::::::;#@@@ ",
"+@@@&::::::::::::::&@@@+",
"+@@@-::::::::::::::-@@@+",
"@@@@::::::::::::::::@@@@",
"@@@@::::::::::::::::@@@@",
"@@@@>>>>>>>>>>>>>>>>@@@@",
"@@@@>>>>>>>>>>>>>>>>@@@@",
"@@@@>>>>>>>>>>>>>>>>@@@@",
"@@@@>>>>>>>>>>>>>>>>@@@@",
"@@@@>>>>>>>>>>>>>>>>@@@@",
"@@@@>>>>>>>>>>>>>>>>@@@@",
"@@@@>>>>>>>>>>>>>>>>@@@@",
"@@@@>>>>>>>>>>>>>>>>@@@@",
"111122222222222222221111",
"111122222222222222221111",
"111122222222222222221111",
"111122222222222222221111",
"111122222222222222221111",
"111122222222222222221111",
"111122222222222222221111",
"111122222222222222221111",
"111111111111111111111111",
",1111111111111111111111,",
" 1111111111111111111111 ",
"  ,111111111111111111,  "
};
