/* XPM */
static char *bulletGreen3_outline[] = {
/* columns rows colors chars-per-pixel */
"14 32 61 1 ",
"  c #E7D4A9",
". c #177941",
"X c #177B42",
"o c #197843",
"O c #197943",
"+ c #1A7943",
"@ c #197B44",
"# c #1A7B44",
"$ c #257A4C",
"% c #257C4D",
"& c #477E67",
"* c #1E9650",
"= c #209552",
"- c #219552",
"; c #229A55",
": c #2C935A",
"> c #23A059",
", c #24A45B",
"< c #25B05F",
"1 c #27AE60",
"2 c #26AF60",
"3 c #27AF60",
"4 c #35AD6A",
"5 c #34AE6A",
"6 c #35AE6A",
"7 c #27B060",
"8 c #27B160",
"9 c #27B061",
"0 c #27B161",
"q c #25B260",
"w c #29B966",
"e c #2ABB67",
"r c #4A8A6D",
"t c #4D9573",
"y c #4D9674",
"u c #2CC56D",
"i c #2DC86E",
"p c #2ECC71",
"a c #2ECD71",
"s c #2FCF72",
"d c #2FCF73",
"f c #697F81",
"g c #698081",
"h c #698181",
"j c #6A8082",
"k c #6B8183",
"l c #6C8084",
"z c #6D8084",
"x c #6D8085",
"c c #6D8185",
"v c #6E8185",
"b c #6F8587",
"n c #6D8686",
"m c #6F8688",
"M c #708688",
"N c #7C9998",
"B c #7F989A",
"V c #7F999B",
"C c #86A4A4",
"Z c #87A4A4",
"A c #89A4A6",
/* pixels */
"     ffff     ",
"    fjjjjj    ",
"   fjjjjjjf   ",
"  fjjjnnjjjf  ",
" fjjjmVVmjjjf ",
"fjjjmVAAVmjjjf",
"jjjnVCCCCVnjjj",
"%%$:555555:$%%",
"@@+-822228-+@@",
"@@+-922228-+@@",
"@@+-922228-+@@",
"@@+-922228-+@@",
"@@+-822229-+@@",
"@@+-822229-+@@",
"@@+>iuuuui>+@@",
"@@+,dddddd,+@@",
"@@+,dddddd,+@@",
"@@+,dddddd,+@@",
"@@+,dpdddd,+@@",
"@@+,dddddd,+@@",
"@@+,dddddd,+@@",
"@@+;eeeeee;+@@",
"@@+-2<<<28-+@@",
"@@+-822229-+@@",
"@@+-922228-+@@",
"@@+-922229-+@@",
"@@+-922229-+@@",
"++.*8<<<<8*..+",
"&&&rytyyyyr&&&",
"ccccfccccccccc",
" jjjjjjjjjjjj ",
"  jjjjjjjjjj  "
};
