/* XPM */
static char *fenceRed[] = {
/* columns rows colors chars-per-pixel */
"96 32 11 1 ",
"  c None",
". c #4A5A5A",
"X c #4B5A5B",
"o c #4B5B5B",
"O c #4C5B5C",
"+ c #4D5C5D",
"@ c #D04435",
"# c #B5685F",
"$ c #A3807B",
"% c #697E80",
"& c #89A4A6",
/* pixels */
"          XX++++++++XX                                                    XX++++++++XX          ",
"         X+++++++++++++                                                  X+++++++++++++         ",
"        X++++++++++++++X                                                X++++++++++++++X        ",
"        ++++++++++++++++                                                ++++++++++++++++        ",
"        ++++%%%%%%%%++++                                                ++++%%%%%%%%++++        ",
"        ++++%%%%%%%%++++                                                ++++%%%%%%%%++++        ",
"        ++++%%%%%%%%++++                                                ++++%%%%%%%%++++        ",
"        ++++%%%%%%%%++++                                                ++++%%%%%%%%++++        ",
"  XX++++++++%%%%%%%%++++++++++++++++++++++++++++++++++++++++++++++++++++++++%%%%%%%%++++++++XX  ",
" X++++++++++%%%%%%%%++++++++++++++++++++++++++++++++++++++++++++++++++++++++%%%%%%%%+++++++++++ ",
"X+++++++++++%%%%%%%%++++++++++++++++++++++++++++++++++++++++++++++++++++++++%%%%%%%%+++++++++++X",
"++++++++++++%%%%%%%%++++++++++++++++++++++++++++++++++++++++++++++++++++++++%%%%%%%%++++++++++++",
"++++&&&&&&&$@@@@@@@@@@@@@@@#&&&&&&&&&&&&&&&$@@@@@@@@@@@@@@@#&&&&&&&&&&&&&&&$@@@@@@@@@@@@@@@#++++",
"++++&&&&&&$@@@@@@@@@@@@@@@#&&&&&&&&&&&&&&&$@@@@@@@@@@@@@@@#&&&&&&&&&&&&&&&$@@@@@@@@@@@@@@@#&++++",
"++++&&&&&$@@@@@@@@@@@@@@@#&&&&&&&&&&&&&&&$@@@@@@@@@@@@@@@#&&&&&&&&&&&&&&&$@@@@@@@@@@@@@@@#&&++++",
"++++&&&&$@@@@@@@@@@@@@@@#&&&&&&&&&&&&&&&$@@@@@@@@@@@@@@@#&&&&&&&&&&&&&&&$@@@@@@@@@@@@@@@#&&&++++",
"++++&&&$@@@@@@@@@@@@@@@#&&&&&&&&&&&&&&&$@@@@@@@@@@@@@@@#&&&&&&&&&&&&&&&$@@@@@@@@@@@@@@@#&&&&++++",
"++++&&$@@@@@@@@@@@@@@@#&&&&&&&&&&&&&&&$@@@@@@@@@@@@@@@#&&&&&&&&&&&&&&&$@@@@@@@@@@@@@@@#&&&&&++++",
"++++&$@@@@@@@@@@@@@@@#&&&&&&&&&&&&&&&$@@@@@@@@@@@@@@@#&&&&&&&&&&&&&&&$@@@@@@@@@@@@@@@#&&&&&&++++",
"++++$@@@@@@@@@@@@@@@#&&&&&&&&&&&&&&&$@@@@@@@@@@@@@@@#&&&&&&&&&&&&&&&$@@@@@@@@@@@@@@@#&&&&&&&++++",
"++++++++++++%%%%%%%%++++++++++++++++++++++++++++++++++++++++++++++++++++++++%%%%%%%%++++++++++++",
"X+++++++++++%%%%%%%%++++++++++++++++++++++++++++++++++++++++++++++++++++++++%%%%%%%%+++++++++++X",
" +++++++++++%%%%%%%%++++++++++++++++++++++++++++++++++++++++++++++++++++++++%%%%%%%%+++++++++++ ",
"  X+++++++++%%%%%%%%++++++++++++++++++++++++++++++++++++++++++++++++++++++++%%%%%%%%+++++++++O  ",
"        ++++%%%%%%%%++++                                                ++++%%%%%%%%++++        ",
"        ++++%%%%%%%%++++                                                ++++%%%%%%%%++++        ",
"        ++++%%%%%%%%++++                                                ++++%%%%%%%%++++        ",
"        ++++%%%%%%%%++++                                                ++++%%%%%%%%++++        ",
"        ++++++++++++++++                                                ++++++++++++++++        ",
"        X++++++++++++++X                                                X++++++++++++++X        ",
"         ++++++++++++++                                                  ++++++++++++++         ",
"          X++++++++++O                                                    X++++++++++O          "
};
