/* XPM */
static char *floor[] = {
/* columns rows colors chars-per-pixel */
"32 32 37 1 ",
"  c #E7D4A9",
". c #DCCAA1",
"X c #DDCBA1",
"o c #DDCBA2",
"O c #DECBA2",
"+ c #DECCA2",
"@ c #DFCCA3",
"# c #DFCDA3",
"$ c #E0CDA3",
"% c #E0CDA4",
"& c #E0CEA4",
"* c #E1CEA4",
"= c #E1CEA5",
"- c #E1CFA5",
"; c #E2CFA5",
": c #E2D0A5",
"> c #E3D0A6",
", c #E4D1A7",
"< c #E4D2A7",
"1 c #E5D2A7",
"2 c #E5D2A8",
"3 c #E5D3A8",
"4 c #E6D3A8",
"5 c #E6D3A9",
"6 c #E6D4A9",
"7 c #E7D4A9",
"8 c #E8D5A9",
"9 c #E8D5AA",
"0 c #EAD7AC",
"q c #EBD8AC",
"w c #ECD9AC",
"e c #ECD9AD",
"r c #EDDAAD",
"t c #EDDAAE",
"y c #EEDBAE",
"u c #EFDCAF",
"i c #F0DDB0",
/* pixels */
"77777777777777777777777777777777",
"777777777777777777778w8777777777",
"77777777777777777777wiw777777777",
"77777:-777777777wq778w8777777777",
"77771..17777777wiiw7777777773377",
"77777--37777777wiiw777777773++37",
"7777777777777778ww8777777773..37",
"77733777777777777777777777773377",
"773++377777777777777777--:377777",
"773..377777777777777773. .177777",
"77731777777777777777771. .377777",
"77777777777777777777773---777777",
"77777777777777777777777777777777",
"77777777777777777777777777777777",
"777777778qw877777777777777777777",
"77777777wiiq77777777777777887777",
"77777777qiiw77777777777778ww8777",
"777777778wq87777771-177778ww8777",
"777777777777777777- -77777887777",
"7733337777777777771-177777777777",
"77:..-77777777777777777777777777",
"77-  -77777777777777777777777777",
"77-..-77777777777777777777777777",
"77331377777777777777777777777777",
"77777777777777777777777777337777",
"7777777777773$:37777777773..3777",
"777777777777-  +7777777773..3777",
"7778q0777777+  -7777777777337777",
"7778uu8777771-+3777771-177777777",
"7778qq877777777777777- -77777777",
"7777777777777777777771-177777777",
"77777777777777777777777777777777"
};
