/* XPM */
static char *floor1[] = {
/* columns rows colors chars-per-pixel */
"32 32 36 1 ",
"  c #35B66B",
". c #35B76B",
"X c #35B76C",
"o c #36B86C",
"O c #36B96C",
"+ c #36B96D",
"@ c #36BA6D",
"# c #36BA6E",
"$ c #36BB6E",
"% c #37BB6E",
"& c #37BC6E",
"* c #37BC6F",
"= c #37BD6F",
"- c #38BE70",
"; c #38BF70",
": c #38C071",
"> c #38C171",
", c #39C171",
"< c #39C172",
"1 c #39C272",
"2 c #39C373",
"3 c #3AC373",
"4 c #3AC474",
"5 c #3BC474",
"6 c #3DC676",
"7 c #3DC777",
"8 c #3EC777",
"9 c #3EC878",
"0 c #3FC878",
"q c #3FC979",
"w c #40C979",
"e c #40CA7A",
"r c #41CA7A",
"t c #41CB7B",
"y c #42CC7C",
"u c #43CD7D",
/* pixels */
"11111111111111111111111111111111",
"11111111111111111111494111111111",
"111111111111111111119u9111111111",
"11111**1111111119711494111111111",
"11111XX111111119uu91111111111111",
"11111**11111111wuu9111111111++11",
"1111111111111111991111111111++11",
"11111111111111111111111111111111",
"111++111111111111111111**;111111",
"111++111111111111111111+ X111111",
"11111111111111111111111  +111111",
"11111111111111111111111*+*111111",
"11111111111111111111111111111111",
"11111111111111111111111111111111",
"11111111179411111111111111111111",
"111111119uu711111111111111111111",
"111111117uuw11111111111111ww1111",
"111111114w74111111;*111111ww4111",
"111111111111111111+ *11111411111",
"111111111111111111;+;11111111111",
"11*X+*11111111111111111111111111",
"11*  *11111111111111111111111111",
"11*X *11111111111111111111111111",
"11111111111111111111111111111111",
"11111111111111111111111111111111",
"1111111111111+*11111111111++1111",
"111111111111*  +1111111111++1111",
"111177111111+  *1111111111111111",
"1114uu1111111*+111111;*111111111",
"111177111111111111111+ *11111111",
"111111111111111111111;+111111111",
"11111111111111111111111111111111"
};
