/* XPM */
static char *tank_green[] = {
/* columns rows colors chars-per-pixel */
"84 92 35 1 ",
"  c None",
". c #2B2A22",
"X c #2E2920",
"o c #2C2B20",
"O c #2D2B20",
"+ c #2C2922",
"@ c #2E2B22",
"# c #373328",
"$ c #3D382C",
"% c #403C2F",
"& c #156F3D",
"* c #156F3E",
"= c #176F3E",
"- c #17703E",
"; c #464133",
": c #187541",
"> c #187942",
", c #197942",
"< c #187943",
"1 c #1A7842",
"2 c #1A7942",
"3 c #197B44",
"4 c #1A7B44",
"5 c #1B8147",
"6 c #1B8247",
"7 c #1C874A",
"8 c #1E8C4D",
"9 c #1F9251",
"0 c #209350",
"q c #23A158",
"w c #27AF60",
"e c #28B564",
"r c #29BA67",
"t c #2CC66D",
"y c #2ECC71",
/* pixels */
"              >>4444444444444444444444444444444444444444444444444444>>              ",
"             >44444444444444444444444444444444444444444444444444444444>             ",
"            >4444444444444444444444444444444444444444444444444444444444>            ",
"            444444444444444444444444444444444444444444444444444444444444            ",
"      .X@@@@XXXXwwwwwwwwyyyyyyyywwwwwwwwwwwwwwwwwwwwyyyyyyyywwwwwwwwXXXXXXX@XX      ",
"     XXX@@@@XXXXwwwwwwwwyyyyyyyywwwwwwwwwwwwwwwwwwwwyyyyyyyywwwwwwwwXXXXXXXX@@X     ",
"    XXXX@X@@XXXXwwwwwwwwyyyyyyyywwwwwwwwwwwwwwwwwwwwyyyyyyyywwwwwwwwXXXXXXXX@@@X    ",
"   XXXXXXX@@@XXXwwwwwwwwyyyyyyyywwwwwwwwwwwwwwwwwwwwyyyyyyyywwwwwwww@XXXXXXX@@@@X   ",
"  XXXXX#;;;;;;;;wwwwwwwwyyyyyyyyyyyyyyyyyyyyyyyyyyyyyyyyyyyywwwwwwww;;;;;;;;#XXXXX  ",
" XXXXX#;;;;;;;;;wwwwwwwwyyyyyyyyyyyyyyyyyyyyyyyyyyyyyyyyyyyywwwwwwww;;;;;;;;;#XXXXX ",
"XXXXX#;;;;;;;;;;wwwwwwwwyyyyyyyyyyyyyyyyyyyyyyyyyyyyyyyyyyyywwwwwwww;;;;;;;;;;#XXXXX",
"@XXX#;;;;;;;;;;;wwwwwwwwyyyyyyyyyyyyyyyyyyyyyyyyyyyyyyyyyyyywwwwwwww;;;;;;;;;;;#XXXX",
"@@@X;;;;;;;;;;;;wwwwwwwwyyyyyyyyyyyyyyyyyyyyyyyyyyyyyyyyyyyywwwwwwww;;;;;;;;;;;;XX@@",
"@@XX;;;;;;;;;;;;wwwwwwwwyyyyyyyyyyyyyyyyyyyyyyyyyyyyyyyyyyyywwwwwwww;;;;;;;;;;;;XX@@",
"X@XX;;;;;;;;;;;;wwwwwwwwyyyyyyyyyyyyyyyyyyyyyyyyyyyyyyyyyyyywwwwwwww;;;;;;;;;;;;X@@@",
"XXXX;;;;;;;;;;;;wwwwwwwwyyyyyyyyyyyyyyyyyyyyyyyyyyyyyyyyyyyywwwwwwww;;;;;;;;;;;;XX@@",
"XX@@%%%%%%%%wwwwwwwwwwwwyyyyyyyyyyyyyyyyyyyyyyyyyyyyyyyyyyyywwwwwwwwwwww%%%%%%%%@@@@",
"@@@@%%%%%%%%wwwwwwwwwwwwyyyyyyyyyyyyyyyyyyyyyyyyyyyyyyyyyyyywwwwwwwwwwww%%%%%%%%@@@X",
"@@@@%%%%%%%%wwwwwwwwwwwwyyyyyyyyyyyyyyyyyyyyyyyyyyyyyyyyyyyywwwwwwwwwwww%%%%%%%%@@XX",
"@@@@%%%%%%%%wwwwwwwwwwwwyyyyyyyyyyyyyyyyyyyyyyyyyyyyyyyyyyyywwwwwwwwwwww%%%%%%%%@@XX",
"XXXX%%%%%%%%wwwwwwwwwwwwyyyyyyyyyyyyyyyyyyyyyyyyyyyyyyyyyyyywwwwwwwwwwww%%%%%%%%@XXX",
"XXXX%%%%%%%%wwwwwwwwwwwwyyyyyyyyyyyyyyyyyyyyyyyyyyyyyyyyyyyywwwwwwwwwwww%%%%%%%%@@XX",
"XXXX%%%%%%%%wwwwwwwwwwwwyyyyyyyyyyyyyyyyyyyyyyyyyyyyyyyyyyyywwwwwwwwwwww%%%%%%%%XXXX",
"@XXX%%%%%%%%wwwwwwwwwwwwyyyyyyyyyyyyyyyyyyyyyyyyyyyyyyyyyyyywwwwwwwwwwww%%%%%%%%XXXX",
"@@@@%%%%%%%%wwwwwwwwwwwwyyyyyyyyyyyyyyyyyyyyyyyyyyyyyyyyyyyywwwwwwwwwwww%%%%%%%%@@XX",
"@@@@%%%%%%%%wwwwwwwwwwwwyyyyyyyyyyyyyyyyyyyyyyyyyyyyyyyyyyyywwwwwwwwwwww%%%%%%%%@@@@",
"XX@@%%%%%%%%wwwwwwwwwwwwyyyyyyyyyyyyyyyyyyyyyyyyyyyyyyyyyyyywwwwwwwwwwww%%%%%%%%@@@@",
"X@@@%%%%%%%%wwwwwwwwwwwwyyyyyyyyyyyyyyyyyyyyyyyyyyyyyyyyyyyywwwwwwwwwwww%%%%%%%%@@@@",
"XX@@%%%%%%%%wwwwwwwwwwwwyyyyyyyyyyyyyyyyyyyyyyyyyyyyyyyyyyyywwwwwwwwwwww%%%%%%%%XXXX",
"XX@@%%%%%%%%wwwwwwwwwwwwyyyyyyyyyyyyyyyyyyyyyyyyyyyyyyyyyyyywwwwwwwwwwww%%%%%%%%@XXX",
"XXX@%%%%%%%%wwwwwwwwwwwwyyyyyyyyyyyyyyyyyyyyyyyyyyyyyyyyyyyywwwwwwwwwwww%%%%%%%%@@XX",
"XXX@%%%%%%%%wwwwwwwwwwwwyyyyyyyyyyyyyyyyyyyyyyyyyyyyyyyyyyyywwwwwwwwwwww%%%%%%%%@@XX",
"XXXX%%%%%%%%wwwwwwwwwwwwyyyyyyyyyyyr97--------78eyyyyyyyyyyywwwwwwwwwwww%%%%%%%%XXX@",
"XXXX%%%%%%%%wwwwwwwwwwwwyyyyyyyyyyt4-------------ryyyyyyyyyywwwwwwwwwwww%%%%%%%%XXXX",
"XXXX%%%%%%%%wwwwwwwwwwwwyyyyyyyyyy8--------------7yyyyyyyyyywwwwwwwwwwww%%%%%%%%XXXX",
"@XXX%%%%%%%%wwwwwwwwwwwwyyyyyyyyyy----------------yyyyyyyyyywwwwwwwwwwww%%%%%%%%XXXX",
"@@@@%%%%%%%%wwwwwwwwwwwwyyyyyyyyyy----00000000----yyyyyyyyyywwwwwwwwwwww%%%%%%%%@@@@",
"@@@@%%%%%%%%wwwwwwwwwwwwyyyyyyyyyy----00000000----yyyyyyyyyywwwwwwwwwwww%%%%%%%%@@@@",
"XX@@%%%%%%%%wwwwwwwwwwwwyyyyyyyyyy----00000000----yyyyyyyyyywwwwwwwwwwww%%%%%%%%@X@@",
"X@@@%%%%%%%%wwwwwwwwwwwwyyyyyyyyyy----00000000----yyyyyyyyyywwwwwwwwwwww%%%%%%%%XX@@",
"XX@@%%%%%%%%wwwwwwwwwwwwyyyyyyyyyy----00000000----yyyyyyyyyywwwwwwwwwwww%%%%%%%%XXXX",
"XX@@%%%%%%%%wwwwwwwwwwwwyyyyyyyyyy----00000000----yyyyyyyyyywwwwwwwwwwww%%%%%%%%XXXX",
"XXX@%%%%%%%%wwwwwwwwwwwwyyyyyyyyyy----00000000----yyyyyyyyyywwwwwwwwwwww%%%%%%%%@@XX",
"XXX@%%%%%%%%wwwwwwwwwwwwyyyyyyyyyy----00000000----yyyyyyyyyywwwwwwwwwwww%%%%%%%%@@@@",
"XXXX%%%%%%%%wwwwwwwwwwwwyyyyyyyyyy----00000000----yyyyyyyyyywwwwwwwwwwww%%%%%%%%@@XX",
"XXXX%%%%%%%%wwwwwwwwwwwwyyyyyyyyyy----00000000----yyyyyyyyyywwwwwwwwwwww%%%%%%%%@@XX",
"XXXX%%%%%%%%wwwwwwwwwwwwyyyyyyyyyr----00000000----ryyyyyyyyywwwwwwwwwwww%%%%%%%%@@XX",
"@@XX%%%%%%%%wwwwwwwwwwwwyyyyyyyyr:----00000000----:ryyyyyyyywwwwwwwwwwww%%%%%%%%@@XX",
"@@@@%%%%%%%%wwwwwwwwwwwwyyyyyyyt6----6qqqqqqqq6----:ryyyyyyywwwwwwwwwwww%%%%%%%%XXXX",
"@@@@%%%%%%%%wwwwwwwwwwwwyyyyyyt6----6qqqqqqqqqq6----:ryyyyyywwwwwwwwwwww%%%%%%%%XXXX",
"XX@@%%%%%%%%wwwwwwwwwwwwyyyyyy8----6qqqqqqqqqqqq6----7yyyyyywwwwwwwwwwww%%%%%%%%XXXX",
"XXX@%%%%%%%%wwwwwwwwwwwwyyyyyy----6qqqqqqqqqqqqqq6----yyyyyywwwwwwwwwwww%%%%%%%%@XXX",
"XX@@%%%%%%%%wwwwwwwwwwwwyyyyyy----qqqqqqqqqqqqqqqq----yyyyyywwwwwwwwwwww%%%%%%%%@@@@",
"XX@@%%%%%%%%wwwwwwwwwwwwyyyyyy----qqqqqqqqqqqqqqqq----yyyyyywwwwwwwwwwww%%%%%%%%@@@@",
"XX@@%%%%%%%%wwwwwwwwwwwwyyyyyy----qqqqqqqqqqqqqqqq----yyyyyywwwwwwwwwwww%%%%%%%%XX@@",
"XX@@%%%%%%%%wwwwwwwwwwwwyyyyyy----qqqqqqqqqqqqqqqq----yyyyyywwwwwwwwwwww%%%%%%%%X@@@",
"XXXX%%%%%%%%wwwwwwwwwwwwyyyyyy----qqqqqqqqqqqqqqqq----yyyyyywwwwwwwwwwww%%%%%%%%XX@@",
"XXXX%%%%%%%%wwwwwwwwwwwwyyyyyy----qqqqqqqqqqqqqqqq----yyyyyywwwwwwwwwwww%%%%%%%%XX@@",
"XXXX%%%%%%%%wwwwwwwwwwwwyyyyyy----qqqqqqqqqqqqqqqq----yyyyyywwwwwwwwwwww%%%%%%%%XXX@",
"@XXX%%%%%%%%wwwwwwwwwwwwyyyyyy----qqqqqqqqqqqqqqqq----yyyyyywwwwwwwwwwww%%%%%%%%XXX@",
"@@@@%%%%%%%%wwwwwwwwwwwwyyyyyy----qqqqqqqqqqqqqqqq----yyyyyywwwwwwwwwwww%%%%%%%%XX@@",
"@@@@%%%%%%%%wwwwwwwwwwwwyyyyyy----qqqqqqqqqqqqqqqq----yyyyyywwwwwwwwwwww%%%%%%%%XX@@",
"XX@@%%%%%%%%wwwwwwwwwwwwyyyyyy----qqqqqqqqqqqqqqqq----yyyyyywwwwwwwwwwww%%%%%%%%XX@@",
"X@@@%%%%%%%%wwwwwwwwwwwwyyyyyy----qqqqqqqqqqqqqqqq----yyyyyywwwwwwwwwwww%%%%%%%%XX@@",
"XX@@;;;;;;;;;;;;wwwwwwwwyyyyyy----qqqqqqqqqqqqqqqq----yyyyyywwwwwwww;;;;;;;;;;;;XXXX",
"XX@@;;;;;;;;;;;;wwwwwwwwyyyyyy----qqqqqqqqqqqqqqqq----yyyyyywwwwwwww;;;;;;;;;;;;XXXX",
"XXX@;;;;;;;;;;;;wwwwwwwwyyyyyy----qqqqqqqqqqqqqqqq----yyyyyywwwwwwww;;;;;;;;;;;;XXXX",
"XXX@;;;;;;;;;;;;wwwwwwwwyyyyyy----qqqqqqqqqqqqqqqq----yyyyyywwwwwwww;;;;;;;;;;;;@XXX",
"@@XX$;;;;;;;;;;;wwwwwwwwyyyyyy----qqqqqqqqqqqqqqqq----yyyyyywwwwwwww;;;;;;;;;;;$@@XX",
"XXXXX$;;;;;;;;;;wwwwwwwwyyyyyy----qqqqqqqqqqqqqqqq----yyyyyywwwwwwww;;;;;;;;;;$@@@XX",
" @XXXX$;;;;;;;;;wwwwwwwwyyyyyy----qqqqqqqqqqqqqqqq----yyyyyywwwwwwww;;;;;;;;;$@@@@@ ",
"  XXXXX$;;;;;;;;wwwwwwwwyyyyyy----qqqqqqqqqqqqqqqq----yyyyyywwwwwwww;;;;;;;;$X@X@@  ",
"   @XXXX@XX@XXX@wwwwwwwwyyyyyy----qqqqqqqqqqqqqqqq----yyyyyywwwwwwwwXXX@@@@@XXXXX   ",
"    XXXXXX@@XXXXwwwwwwwwyyyyyy----qqqqqqqqqqqqqqqq----yyyyyywwwwwwwwXXXX@@@@XXXX    ",
"     XXX@@@@XXXXwwwwwwwwyyyyyy----qqqqqqqqqqqqqqqq----yyyyyywwwwwwwwXXXXXX@@XXX     ",
"      XX@@@@XXXXwwwwwwwwyyyyyy----qqqqqqqqqqqqqqqq----yyyyyywwwwwwwwXXXXX@@@XX      ",
"            444444444444444444----qqqqqqqqqqqqqqqq----444444444444444444            ",
"            >44444444444444444----qqqqqqqqqqqqqqqq----44444444444444444>            ",
"             44444444444444444----qqqqqqqqqqqqqqqq----44444444444444444             ",
"              >444444444444444----qqqqqqqqqqqqqqqq----444444444444444>              ",
"                              ----qqqqqqqqqqqqqqqq----                              ",
"                              ----qqqqqqqqqqqqqqqq----                              ",
"                              ----qqqqqqqqqqqqqqqq----                              ",
"                              ----qqqqqqqqqqqqqqqq----                              ",
"                              ----qqqqqqqqqqqqqqqq----                              ",
"                              ----qqqqqqqqqqqqqqqq----                              ",
"                              ----qqqqqqqqqqqqqqqq----                              ",
"                              ----qqqqqqqqqqqqqqqq----                              ",
"                              ------------------------                              ",
"                              *----------------------*                              ",
"                               ----------------------                               ",
"                                *------------------*                                "
};
