/* XPM */
static char *player_left[] = {
/* columns rows colors chars-per-pixel */
"32 29 67 1 ",
"  c #e7d4a9",
". c #2D2921",
"X c #2D2D22",
"o c #322A22",
"O c #312C22",
"+ c #352C23",
"@ c #312D24",
"# c #352C24",
"$ c #343026",
"% c #3B362B",
"& c #3C372B",
"* c #3C372C",
"= c #3E392D",
"- c #403B2E",
"; c #403C2F",
": c #443F31",
"> c #27442C",
", c #3F4231",
"< c #245131",
"1 c #3F593D",
"2 c #176F3E",
"3 c #17703E",
"4 c #18733F",
"5 c #434132",
"6 c #464133",
"7 c #187340",
"8 c #187540",
"9 c #1A7A43",
"0 c #1A7B44",
"q c #197C44",
"w c #2D6B40",
"e c #2E6C41",
"r c #3B6642",
"t c #217342",
"y c #247041",
"u c #377548",
"i c #387548",
"p c #1B8047",
"a c #1B8248",
"s c #1E8D4D",
"d c #1F9151",
"f c #328750",
"g c #209250",
"h c #209653",
"j c #2C9656",
"k c #219853",
"l c #229B55",
"z c #229C56",
"x c #2C9956",
"c c #239F58",
"v c #309053",
"b c #23A057",
"n c #23A058",
"m c #24A45A",
"M c #25A65C",
"N c #25A95E",
"B c #26AC5F",
"V c #27AF60",
"C c #27B061",
"Z c #28B363",
"A c #29B765",
"S c #2ABB67",
"D c #2CC36C",
"F c #2CC46C",
"G c #2DC86F",
"H c #2ECB71",
"J c #2ECD71",
/* pixels */
"       ......................   ",
"      .O%*%%%%%%%%%%%%%%%%%%O.  ",
"      .=66;;;;;;;;;;;;;;;;:6-O. ",
"      @:66,,,,,,,,,,,,,,,,566$X ",
"     <o::1jxxxjjxxxxxxxxjxr::#>q",
"    0twuifCCCCCCCCCCCCCCCCvuuey0",
"    9gCCCCVVVVVVVVVVVVVVVVCCCCl0",
"    9gCVVVVVVVVVVVVVVVVVVVVVVCl0",
"    9lFDDDDDDDDDDDDDDDDDDDDDDFM0",
"    9cJJJJJJJJJJJJJJJJJJJJJJJJB0",
" 2224pddddddddmGJJJJJJJJJJJJJJN0",
"39qqqqqqqqqqq08hCCCZFJJJJJJJHSz0",
"3snnnnnnnnnnnbs87774hHJJJJJJHAl0",
"3snnnnnnnnnnnnndsssqaFJJJJJJHAl0",
"3snnnnnnnnnnnnnkhhhppFJJJJJJHAl0",
"3snnnnnnnnnnnnndsssqaFJJJJJJHAl0",
"3snnnnnnnnnnnbs87774hHJJJJJJHAl0",
"39qqqqqqqqqqqq7gCCCZDJJJJJJJHSz0",
" 2224pgdddddddnFJJJJJJJJJJJJJHN0",
"    9cJJJJJJJJJJJJJJJJJJJJJJJJN0",
"    9lFDDDDDDDDDDDDDDDDDDDDDDFM0",
"    9gCVVVVVVVVVVVVVVVVVVVVVVCl0",
"    9gCCCCVVVVVVVVVVVVVVVVCCCCl0",
"    0twuifCCCCCCCCCCCCCCCCvuuey0",
"     <o::1jxjxjjxxjjjxxxxxr::+>0",
"      @:66,,,,,,,,,,,,,,,,566#. ",
"      .=66;;;;;;;;;;;;;;;;:6-O. ",
"      .@%&%%%%%%%%%%%%%%%%%&O.  ",
"       ......................   "
};
