/* XPM */
static char *player_right[] = {
/* columns rows colors chars-per-pixel */
"32 29 68 1 ",
"  c #E7D4A9",
". c #2D2921",
"X c #2D2D22",
"o c #322A22",
"O c #312C22",
"+ c #352C23",
"@ c #312D24",
"# c #352C24",
"$ c #343026",
"% c #3B362B",
"& c #3C372B",
"* c #3C372C",
"= c #3E392D",
"- c #403B2E",
"; c #403C2F",
": c #443F31",
"> c #27442C",
", c #3F4231",
"< c #245131",
"1 c #3F593D",
"2 c #176F3E",
"3 c #17703E",
"4 c #18733F",
"5 c #434132",
"6 c #464133",
"7 c #187340",
"8 c #187540",
"9 c #1A7A43",
"0 c #1A7B44",
"q c #197C44",
"w c #2D6B40",
"e c #2E6C41",
"r c #3B6642",
"t c #217342",
"y c #247041",
"u c #377548",
"i c #387548",
"p c #1B8047",
"a c #1B8248",
"s c #1E8D4D",
"d c #1F9151",
"f c #1F9250",
"g c #328750",
"h c #209250",
"j c #209653",
"k c #2C9656",
"l c #219853",
"z c #229B55",
"x c #229C56",
"c c #2C9956",
"v c #239F58",
"b c #309053",
"n c #23A057",
"m c #23A058",
"M c #24A45A",
"N c #25A65C",
"B c #25A95E",
"V c #26AC5F",
"C c #27AF60",
"Z c #27B061",
"A c #28B363",
"S c #29B765",
"D c #2ABB67",
"F c #2CC36C",
"G c #2CC46C",
"H c #2DC86F",
"J c #2ECB71",
"K c #2ECD71",
/* pixels */
"   ......................       ",
"  .O&%%%%%%%%%%%%%%%%%&%@.      ",
" .O-6:;;;;;;;;;;;;;;;;66=.      ",
" .#665,,,,,,,,,,,,,,,,66:@      ",
"0>+::rccccckkkcckkckck1::o<     ",
"0yeuubZZZZZZZZZZZZZZZZgiuwt0    ",
"0zZZZZCCCCCCCCCCCCCCCCZZZZh9    ",
"0zZCCCCCCCCCCCCCCCCCCCCCCZh9    ",
"0NGFFFFFFFFFFFFFFFFFFFFFFGz9    ",
"0BKKKKKKKKKKKKKKKKKKKKKKKKv9    ",
"0BJKKKKKKKKKKKKKGmdddddddhp4222 ",
"0xDJKKKKKKKFAZZZh7qqqqqqqqqqqq93",
"0zSJKKKKKKJj47778snmmmmmmmmmmms3",
"0zSJKKKKKKGaqsssdmmmmmmmmmmmmms3",
"0zSJKKKKKKGppjjjlmmmmmmmmmmmmms3",
"0zSJKKKKKKGaqsssdmmmmmmmmmmmmms3",
"0zSJKKKKKKJj47778snmmmmmmmmmmms3",
"0xDJKKKKKKKGAZZZj80qqqqqqqqqqq93",
"0BKKKKKKKKKKKKKKHMddddddddp4222 ",
"0VKKKKKKKKKKKKKKKKKKKKKKKKv9    ",
"0NGFFFFFFFFFFFFFFFFFFFFFFGz9    ",
"0zZCCCCCCCCCCCCCCCCCCCCCCZh9    ",
"0zZZZZCCCCCCCCCCCCCCCCZZZZh9    ",
"0yeuubZZZZZZZZZZZZZZZZgiuwt0    ",
"q>#::rckcccccccckkccck1::o<     ",
" X$665,,,,,,,,,,,,,,,,66:@      ",
" .O-6:;;;;;;;;;;;;;;;;66=.      ",
"  .O%%%%%%%%%%%%%%%%%%*%O.      ",
"   ......................       "
};
