/* XPM */
static char *wall[] = {
/* columns rows colors chars-per-pixel */
"32 32 53 1 ",
"  c #E7D4A9",
". c #4C5B5C",
"X c #4D5B5C",
"o c #4D5C5C",
"O c #4D5C5D",
"+ c #4E5E5F",
"@ c #4F5E5F",
"# c #526364",
"$ c #536364",
"% c #556566",
"& c #556567",
"* c #556667",
"= c #556668",
"- c #566768",
"; c #57696A",
": c #596A6B",
"> c #596A6C",
", c #5B6C6E",
"< c #617576",
"1 c #637779",
"2 c #65797B",
"3 c #677B7D",
"4 c #677C7D",
"5 c #687D7F",
"6 c #697E80",
"7 c #697F81",
"8 c #6A7F81",
"9 c #6A8081",
"0 c #6B8082",
"q c #6C8183",
"w c #6D8385",
"e c #6E8485",
"r c #6E8486",
"t c #6F8587",
"y c #6F8687",
"u c #6F8688",
"i c #708789",
"p c #718789",
"a c #718889",
"s c #72888A",
"d c #72898B",
"f c #738A8C",
"g c #748B8D",
"h c #748C8E",
"j c #758C8E",
"k c #758D8F",
"l c #768D8F",
"z c #768E90",
"x c #778E90",
"c c #778F91",
"v c #779092",
"b c #789092",
"n c #799193",
/* pixels */
" .OOOOOOOOOOOOOOOOOOOOOOOOOOOO. ",
".OOOOOOOOOOOOOOOOOOOOOOOOOOOOOO.",
"OO<08888808888888800888888880<OO",
"OO0nnnnnnnnnnnnnnnnnnnnnnnnnn0OO",
"OO8nccccccccccccccccccccccccn8OO",
"OO8nccccccccnnnnnnnvccccccccn8OO",
"OO0nccchhhhfttttttttfhhhhcccn8OO",
"OO8ncch888et;OOOOOO;tt888hccn8OO",
"OO8ncch88ehct*OOO.*tvhe88hccn8OO",
"OO8nccg8ehccc5#O.*tvcche8hccn8OO",
"OO8ncchehcccu81#*tvcccchthccn8OO",
"OO8nccgpccct8883tcccccccpgccn8OO",
"OO8ncnt,pcu888qhcccccccp,tncn8OO",
"OO0ncntO:8888qgccccccvp:Otncn8OO",
"OO8ncntOO*28qgccccccvf:.Otncn8OO",
"OO8ncntOOO*5gcccccccf>OOOtvcn8OO",
"OO8ncntOO.=uccccccch5#OOOtncn8OO",
"OO8ncntOO*tccccccche81#.Otncn8OO",
"OO8ncntO*tncccccche8883*Otncn0OO",
"OO8ncnt;tccccccche888tct;tncn0OO",
"OO8nccftcccccccf8888thcctfccn8OO",
"OO8ncchthccccnp>*28thcchthccn8OO",
"OO0ncch8thccnp:.O*8cccht8hccn8OO",
"OO8ncch88thcf>.OO.>fcht88hccn8OO",
"OO8ncch888tp,OOOOOO,pt888hccn8OO",
"OO0nccchhhhgttttttttghhhhcccn8OO",
"OO8nccccccccnnnvnnnvccccccccn8OO",
"OO8nccccccccccccccccccccccccn8OO",
"OO0nnnnnnnnnnnnnnnnnnnnnnnnnn0OO",
"OO<08888888800880088888888880<OO",
".OOOOOOOOOOOOOOOOOOOOOOOOOOOOOO.",
" .OOOOOOOOOOOOOOOOOOOOOOOOOOOOO "
};
