/* XPM */
static char *crateMetal[] = {
/* columns rows colors chars-per-pixel */
"56 56 14 1 ",
"  c None",
". c #4A5A5A",
"X c #4B5A5B",
"o c #4B5B5B",
"O c #4C5B5C",
"+ c #4D5C5D",
"@ c #57686A",
"# c #5C6F70",
"$ c #5E7172",
"% c #677B7D",
"& c #697E80",
"* c #6E8486",
"= c #71888A",
"- c #778F91",
/* pixels */
"  XX++++++++++++++++++++++++++++++++++++++++++++++++XX  ",
" X+++++++++++++++++++++++++++++++++++++++++++++++++++++ ",
"X++++++++++++++++++++++++++++++++++++++++++++++++++++++X",
"++++++++++++++++++++++++++++++++++++++++++++++++++++++++",
"++++------------------------------------------------++++",
"++++------------------------------------------------++++",
"++++------------------------------------------------++++",
"++++------------------------------------------------++++",
"++++------------------------------------------------++++",
"++++------------------------------------------------++++",
"++++------------------------------------------------++++",
"++++------------------------------------------------++++",
"++++--------&&&&&&&*#++++++++++++++#*&&&&&&&--------++++",
"++++--------&&&&&&*--#++++++++++++#--*&&&&&&--------++++",
"++++--------&&&&&*----#++++++++++#----*&&&&&--------++++",
"++++--------&&&&*------#++++++++#------*&&&&--------++++",
"++++--------&&&*-------=@++++++#--------*&&&--------++++",
"++++--------&&*-------=&&@++++#----------*&&--------++++",
"++++--------&*-------=&&&&@++#------------*&--------++++",
"++++--------*-------=&&&&&&@#--------------*--------++++",
"++++--------%------=&&&&&&&*---------------%--------++++",
"++++--------+%----=&&&&&&&*---------------%+--------++++",
"++++--------++%--=&&&&&&&*---------------%++--------++++",
"++++--------+++%=&&&&&&&*---------------%+++--------++++",
"++++--------++++$&&&&&&*---------------%++++--------++++",
"++++--------+++++$&&&&*---------------%+++++--------++++",
"++++--------++++++$&&*---------------%++++++--------++++",
"++++--------+++++++$*---------------%+++++++--------++++",
"++++--------+++++++#---------------=@+++++++--------++++",
"++++--------++++++#---------------=&&@++++++--------++++",
"++++--------+++++#---------------=&&&&@+++++--------++++",
"++++--------++++#---------------=&&&&&&@++++--------++++",
"++++--------+++#---------------=&&&&&&&*#+++--------++++",
"++++--------++#---------------=&&&&&&&*--#++--------++++",
"++++--------+#---------------=&&&&&&&*----#+--------++++",
"++++--------#---------------=&&&&&&&*------#--------++++",
"++++--------=--------------%$&&&&&&*-------=--------++++",
"++++--------&=------------%++$&&&&*-------=&--------++++",
"++++--------&&=----------%++++$&&*-------=&&--------++++",
"++++--------&&&=--------%++++++$*-------=&&&--------++++",
"++++--------&&&&=------%++++++++%------=&&&&--------++++",
"++++--------&&&&&=----%++++++++++%----=&&&&&--------++++",
"++++--------&&&&&&=--%++++++++++++%--=&&&&&&--------++++",
"++++--------&&&&&&&=%++++++++++++++%=&&&&&&&--------++++",
"++++------------------------------------------------++++",
"++++------------------------------------------------++++",
"++++------------------------------------------------++++",
"++++------------------------------------------------++++",
"++++------------------------------------------------++++",
"++++------------------------------------------------++++",
"++++------------------------------------------------++++",
"++++------------------------------------------------++++",
"++++++++++++++++++++++++++++++++++++++++++++++++++++++++",
"X++++++++++++++++++++++++++++++++++++++++++++++++++++++X",
" ++++++++++++++++++++++++++++++++++++++++++++++++++++++ ",
"  X++++++++++++++++++++++++++++++++++++++++++++++++++O  "
};
