/* XPM */
static char *enemy[] = {
/* columns rows colors chars-per-pixel */
"32 32 241 2 ",
"   c #E7D4A9",
".  c #2D2B22",
"X  c #2E2B22",
"o  c #2C2C23",
"O  c #312A22",
"+  c #322B22",
"@  c #342D23",
"#  c #332E24",
"$  c #332F25",
"%  c #342E24",
"&  c #343227",
"*  c #333129",
"=  c #333228",
"-  c #343129",
";  c #35322A",
":  c #343429",
">  c #353429",
",  c #363429",
"<  c #373429",
"1  c #383429",
"2  c #3A3429",
"3  c #3B372B",
"4  c #3D382C",
"5  c #3D392D",
"6  c #3F3C2F",
"7  c #3F3C34",
"8  c #3E3C37",
"9  c #3C3C38",
"0  c #3E3D38",
"q  c #3F3D38",
"w  c #4C2D24",
"e  c #582D24",
"r  c #5C2E25",
"t  c #403C2F",
"y  c #443C2F",
"u  c #4A392D",
"i  c #5B382E",
"p  c #433F31",
"a  c #443F31",
"s  c #473F31",
"d  c #463E32",
"f  c #403E36",
"g  c #413E36",
"h  c #463C36",
"j  c #403E39",
"k  c #5E3F31",
"l  c #683328",
"z  c #733026",
"x  c #70362B",
"c  c #7A342C",
"v  c #713B2F",
"b  c #783B2E",
"n  c #6C3E31",
"m  c #6F3C34",
"M  c #7B3D34",
"N  c #43413B",
"B  c #44423C",
"V  c #46443F",
"C  c #48463E",
"Z  c #4E4B3B",
"A  c #514B3B",
"S  c #564F3E",
"D  c #54503E",
"F  c #56503E",
"G  c #67463E",
"H  c #6E4738",
"J  c #6A433C",
"K  c #68463E",
"L  c #6D463E",
"P  c #784133",
"I  c #784234",
"U  c #794234",
"Y  c #744C3B",
"T  c #474640",
"R  c #484640",
"E  c #494741",
"W  c #4B4943",
"Q  c #4F4D47",
"!  c #544841",
"~  c #504E47",
"^  c #504E48",
"/  c #525049",
"(  c #53514A",
")  c #54524B",
"_  c #55534C",
"`  c #55534D",
"'  c #57534C",
"]  c #50554E",
"[  c #52554E",
"{  c #55544D",
"}  c #56544D",
"|  c #55554E",
" . c #57554E",
".. c #5F534B",
"X. c #58564F",
"o. c #595750",
"O. c #595851",
"+. c #5A5850",
"@. c #5B5952",
"#. c #5B5A52",
"$. c #5D5B52",
"%. c #5C5B53",
"&. c #5D5B53",
"*. c #5D5D55",
"=. c #5E5C54",
"-. c #5E5C55",
";. c #5E5D55",
":. c #5F5D55",
">. c #5F5D56",
",. c #5E5E56",
"<. c #5F5E56",
"1. c #654740",
"2. c #654942",
"3. c #6B4A42",
"4. c #6F4941",
"5. c #6F4A41",
"6. c #6D4C44",
"7. c #704940",
"8. c #704941",
"9. c #7C4F46",
"0. c #625149",
"q. c #60534B",
"w. c #61534B",
"e. c #695249",
"r. c #68524A",
"t. c #69524A",
"y. c #765047",
"u. c #605E55",
"i. c #605E56",
"p. c #615F57",
"a. c #625F57",
"s. c #62625A",
"d. c #69675E",
"f. c #6B6960",
"g. c #6C6A61",
"h. c #8E2C23",
"j. c #892E25",
"k. c #8A2E25",
"l. c #902D24",
"z. c #902E25",
"x. c #942F25",
"c. c #982F25",
"v. c #992F25",
"b. c #9A2F25",
"n. c #8A3128",
"m. c #8B3329",
"M. c #84382C",
"N. c #963027",
"B. c #943227",
"V. c #993026",
"C. c #983027",
"Z. c #9A3026",
"A. c #9B3026",
"S. c #9A3127",
"D. c #9B3127",
"F. c #9C3026",
"G. c #9C3227",
"H. c #96372C",
"J. c #983328",
"K. c #9C3228",
"L. c #983429",
"P. c #A13328",
"I. c #A23328",
"U. c #A33429",
"Y. c #A43429",
"T. c #A8352A",
"R. c #A9352A",
"E. c #AA362A",
"W. c #AB362B",
"Q. c #AC372B",
"!. c #AE362B",
"~. c #AC372C",
"^. c #AF382C",
"/. c #B0372B",
"(. c #B53B2E",
"). c #B73C2F",
"_. c #BA3C2F",
"`. c #BC3D2F",
"'. c #A43D30",
"]. c #A53D30",
"[. c #A53D32",
"{. c #A83E30",
"}. c #AE3E31",
"|. c #BC3E30",
" X c #BF3E30",
".X c #BF3F31",
"XX c #C33F31",
"oX c #8E463C",
"OX c #984638",
"+X c #9D483C",
"@X c #A94233",
"#X c #AF4334",
"$X c #A54A3E",
"%X c #BD4537",
"&X c #BC4739",
"*X c #BD4739",
"=X c #C54032",
"-X c #C64032",
";X c #C64233",
":X c #C64234",
">X c #C34436",
",X c #C64435",
"<X c #C44436",
"1X c #C44637",
"2X c #C94233",
"3X c #CA4233",
"4X c #CB4233",
"5X c #CC4233",
"6X c #CB4234",
"7X c #CC4234",
"8X c #CD4234",
"9X c #CC4334",
"0X c #CD4334",
"qX c #CE4234",
"wX c #C84537",
"eX c #CF4435",
"rX c #C14638",
"tX c #D04334",
"yX c #D24334",
"uX c #D04435",
"iX c #D14435",
"pX c #D14535",
"aX c #D24434",
"sX c #D24435",
"dX c #D14436",
"fX c #D24536",
"gX c #D44435",
"hX c #D44536",
"jX c #D44537",
"kX c #D64536",
"lX c #D54637",
"zX c #DC4839",
"xX c #DF4839",
"cX c #E24B3B",
"vX c #E34B3B",
"bX c #E54B3B",
"nX c #8C4D43",
"mX c #8E4D42",
"MX c #974C40",
"NX c #A34E42",
"BX c #A44E42",
/* pixels */
"                0 j j 0                 0 j j 0                 ",
"      Z.m.h 0 8 R { ) N                 N ) { R 8 0 h m.Z.      ",
"    Z.Q.[.! W W ( i.&.B 8 8 8 8 8 8 8 8 B &.i.( W W ! [.Q.Z.    ",
"  Z.^.8X&Xq.{ { +.:.:.^ R V V V V V V R ^ :.:.+.{ { q.&X8X^.Z.  ",
"Z.(.lXfX&Xq.{ { +.:.i.d.&.{ { { { { { &.d.i.:.+.{ { q.&XfXlX(.Z.",
"K.fXzXfX&Xq.{ { +.:.i.d.&.{ { { { { { &.d.i.:.+.{ { q.&XfXzXfXG.",
"K.fXzXfX&X..{ { +.:.i.d.&.{ { { { { { &.d.i.:.+.{ { q.&XfXzXfXG.",
"K.fXzXfX&X..{ { +.:.:.s.:.+.+.+.+.+.+.:.s.:.:.+.{ { q.&XfXzXfXG.",
"K.fXzXfX&Xq.1.J L 8.8.8.8.e.:.:.:.:.e.8.5.8.8.L J 1.q.&XfXzXfXK.",
"G.fXzXfX%XM z.Z.Z.Z.Z.Z.b.m.6.:.:.6.m.b.Z.Z.Z.Z.Z.h.M %XfXzXfXK.",
"G.fXzXfX^.x.`.8X<X>X>X<X8X/.m.e.e.m./.8X<X>X>X<X8X`.x.^.fXzXfXK.",
"G.fXzXeXI.R.fX<Xy.e.e.nXfX8Xb.8.5.b.8XfXnXe.e.y.<XfXR.I.eXzXfXK.",
"G.fXzXeXI.R.fXrXq.] ] 9.fX8XZ.5.5.Z.8XeX9.] ] q.rXfXR.I.eXzXfXK.",
"G.lXzXfXI.R.fXwXMXnXnX$XfX8XZ.5.5.Z.8XfX$XnXnXMXwXfXR.I.fXzXlXK.",
"Z.}.#X@XB.Q.fXfX4XtX8X5XfX8XZ.5.5.Z.8XfX5X8XtX5XeXfXR.B.@X#X}.Z.",
"B.w 2 y z R.6X8X_.4XXX X8X-Xb.5.5.b.-XeX XXX4X_.8X6XR.z y 2 w B.",
"  + , t l h.Y.4X).-X X X-Xb.j.2.2.j.b.-X XXX:X).4XY.h.l t , +   ",
"  . 2 6 d m z.J.n Y H b G.j.G ` ` G j.G.b H Y n J.l.m d 6 , .   ",
"  . , k OX+XH.e d D Z u r 3.i.s.i.i.3.r u Z S d e H.+XOXk , .   ",
"  . , U bXlX[.# p S A 5 = &.g.f.f.g.&.= 5 A S p # [.lXbXU , .   ",
"  . , P cXlX[.% d S A 5 - &.f.f.f.f.&.- 5 A S p % [.lXcXU , .   ",
"  . , P cXlX[.% d S A 5 - &.f.f.f.f.&.- 5 A S p % [.lXcXU , .   ",
"  . , P cXlX[.% d F A 5 - &.g.f.f.g.&.- 5 A F d % [.lXcXU , .   ",
"  . , P cXlX{.@ & 5 2 # - { :.:.:.:.{ - # 2 5 & @ {.lXcXU , .   ",
"  . = P cXfX:XM.i f f 8 C { { ` { { ` C 8 f f i M.:XfXcXP = .   ",
"    o v cXfXfXlXBX:.:.&.o.X.X.X.X.X.X.X.&.:.:.BXlXfXfXcXv o     ",
"    + x cXfXfXfXNX:.:.:.:.:.:.:.:.:.:.:.:.:.:.NXtXfXfXcXx +     ",
"      L.fXfXfXtXNX:.:.:.:.:.:.:.:.:.:.:.:.:.:.NXtXfXfXfXL.      ",
"      Z.U.~.~.Q.oX:.:.:.:.:.:.:.:.:.:.:.:.:.:.oXQ.R.~.U.Z.      ",
"          Z.Z.c K :.:.:.&.+.+.+.+.+.+.&.i.i.i.K c Z.Z.          ",
"              0 T { { { ( ~ ~ ~ ~ ~ Q ( { { { T 0               ",
"                0 j j j j j j j j j j j j j j 0                 "
};
