/* XPM */
static char *exit[] = {
/* columns rows colors chars-per-pixel */
"11 32 95 2 ",
"   c #E7D4A9",
".  c #4C5B5C",
"X  c #4C5C5D",
"o  c #4D5C5D",
"O  c #4C5D5E",
"+  c #4F5E5F",
"@  c #525B5B",
"#  c #555A5A",
"$  c #545B5B",
"%  c #555B5B",
"&  c #525B5C",
"*  c #525E5E",
"=  c #525E5F",
"-  c #585E5F",
";  c #4F5F60",
":  c #525F60",
">  c #506061",
",  c #516061",
"<  c #506062",
"1  c #506162",
"2  c #546364",
"3  c #546465",
"4  c #58696B",
"5  c #5C6E70",
"6  c #5E7173",
"7  c #5F7274",
"8  c #7D6A68",
"9  c #7A6F6D",
"0  c #666F70",
"q  c #647172",
"w  c #657172",
"e  c #6B7779",
"r  c #6C7778",
"t  c #667B7D",
"y  c #707B7C",
"u  c #707B7D",
"i  c #B7483C",
"p  c #B7493D",
"a  c #B64A3E",
"s  c #B8483B",
"d  c #B8483C",
"f  c #B8493D",
"g  c #CF493B",
"h  c #CD4C3E",
"j  c #D34233",
"k  c #D34333",
"l  c #D34334",
"z  c #D34435",
"x  c #D24536",
"c  c #BA4D41",
"v  c #BB4F43",
"b  c #BC4E43",
"n  c #BD4F43",
"m  c #B35045",
"M  c #B25247",
"N  c #BB5044",
"B  c #B65348",
"V  c #B4564B",
"C  c #A65F57",
"Z  c #A95B52",
"A  c #A95C53",
"S  c #A66058",
"D  c #B9675E",
"F  c #9C6C67",
"G  c #9C6E69",
"H  c #99716D",
"J  c #99736E",
"K  c #B56D64",
"L  c #AA7E79",
"P  c #C65549",
"I  c #C3594E",
"U  c #8E807E",
"Y  c #A6837F",
"T  c #6A8082",
"R  c #6C8283",
"E  c #768A8B",
"W  c #758B8C",
"Q  c #7F9596",
"!  c #7E9697",
"~  c #7D9698",
"^  c #7D9798",
"/  c #7D9799",
"(  c #7E9698",
")  c #7F9698",
"_  c #7F9799",
"`  c #8B8483",
"'  c #848D8E",
"]  c #848E8E",
"[  c #9A908E",
"{  c #829090",
"}  c #829091",
"|  c #979493",
" . c #919D9E",
".. c #8FA0A1",
"X. c #8AA6A8",
/* pixels */
"      + + + + .       ",
"      & 9 W R ;       ",
"    . # M Y _ > .     ",
". + > - d h J 2 > + . ",
"+ 5 t r v k v e t 5 + ",
"+ 6 T y n k n y T 6 + ",
"+ 4 7 w B k v 0 7 4 . ",
"+ + + > U P s # + + . ",
"      > _ [ Z #       ",
"      > _ X.' =       ",
"      > _ X._ >       ",
"      > ! X._ >       ",
"      # J .._ >       ",
"      # i K } >       ",
"      # i x S =       ",
"      # i l i #       ",
"      # i l i #       ",
"      = Z x i #       ",
"      > ' D i #       ",
"      > _  .F #       ",
"      > _ X.! >       ",
"      > _ X._ >       ",
"      : } X._ >       ",
"      # C | _ >       ",
". + + # s I ` > . + . ",
"+ 4 7 0 v k V w 7 4 + ",
"+ 6 T y n k n y T 6 + ",
"+ 5 t r v k n r t 5 + ",
"+ + > 2 G g d - > + . ",
"    . > _ L m # .     ",
"      ; R E 8 @       ",
"      + + + + +       "
};
