/* XPM */
static char *player_down[] = {
/* columns rows colors chars-per-pixel */
"29 32 141 2 ",
"   c #E7D4A9",
".  c #2D2921",
"X  c #2E2920",
"o  c #2E2921",
"O  c #2D2B21",
"+  c #2E2A21",
"@  c #2F2B21",
"#  c #2E2A22",
"$  c #2F2B22",
"%  c #2D2D22",
"&  c #322A22",
"*  c #312C22",
"=  c #312D23",
"-  c #322D23",
";  c #352C23",
":  c #312D24",
">  c #312E24",
",  c #352C24",
"<  c #342F25",
"1  c #343026",
"2  c #393429",
"3  c #393529",
"4  c #39352A",
"5  c #3B362A",
"6  c #3B362B",
"7  c #3B372B",
"8  c #3C372B",
"9  c #3C372C",
"0  c #3E392D",
"q  c #3E3A2D",
"w  c #403B2E",
"e  c #403C2F",
"r  c #443D30",
"t  c #443D31",
"y  c #443F31",
"u  c #443F32",
"i  c #463E32",
"p  c #473E32",
"a  c #463F32",
"s  c #27442C",
"d  c #3F4231",
"f  c #245031",
"g  c #245131",
"h  c #3F593D",
"j  c #176F3D",
"k  c #176F3E",
"l  c #17703E",
"z  c #18723F",
"x  c #18733F",
"c  c #434132",
"v  c #454032",
"b  c #444133",
"n  c #464133",
"m  c #474233",
"M  c #187340",
"N  c #187440",
"B  c #187540",
"V  c #197842",
"C  c #1A7943",
"Z  c #1A7A43",
"A  c #197B44",
"S  c #1A7A44",
"D  c #1A7B44",
"F  c #197C44",
"G  c #1A7C44",
"H  c #1A7D45",
"J  c #1A7E45",
"K  c #1A7E46",
"L  c #1B7E46",
"P  c #2D6B40",
"I  c #2E6C41",
"U  c #3B6642",
"Y  c #217342",
"T  c #247041",
"R  c #367448",
"E  c #367548",
"W  c #377548",
"Q  c #387548",
"!  c #1B8046",
"~  c #1B8047",
"^  c #1B8148",
"/  c #1B8248",
"(  c #1E8C4C",
")  c #1E8C4D",
"_  c #1E8D4D",
"`  c #1F9150",
"'  c #1F9151",
"]  c #1F9250",
"[  c #1F9251",
"{  c #328750",
"}  c #209250",
"|  c #209251",
" . c #209352",
".. c #209450",
"X. c #209451",
"o. c #209452",
"O. c #209552",
"+. c #209653",
"@. c #2C9656",
"#. c #219853",
"$. c #229954",
"%. c #229A55",
"&. c #229B55",
"*. c #229C56",
"=. c #2C9856",
"-. c #2C9956",
";. c #239F58",
":. c #309053",
">. c #23A057",
",. c #23A058",
"<. c #23A158",
"1. c #23A159",
"2. c #23A258",
"3. c #23A259",
"4. c #24A45A",
"5. c #25A65C",
"6. c #25A95E",
"7. c #26AC5F",
"8. c #27AF60",
"9. c #27B060",
"0. c #27B061",
"q. c #26B161",
"w. c #27B161",
"e. c #27B261",
"r. c #27B162",
"t. c #28B263",
"y. c #28B363",
"u. c #29B765",
"i. c #2ABB67",
"p. c #2CC36C",
"a. c #2CC46C",
"s. c #2CC56D",
"d. c #2DC76E",
"f. c #2DC86F",
"g. c #2ECA70",
"h. c #2ECB71",
"j. c #2ECC71",
"k. c #2ECD71",
"l. c #2ECD72",
"z. c #2ECE72",
"x. c #2FCE72",
/* pixels */
"        F D D D D D D D D D D D D D D D D D D D D         ",
"    . % s T &.&.5.7.6.*.&.&.&.&.&.*.6.6.5.&.&.T s . .     ",
"  . * 1 , I 0.0.a.k.k.i.u.u.u.u.u.i.h.k.a.0.0.I ; , * .   ",
". * w n y W 0.8.p.k.k.h.h.h.h.h.h.h.k.k.p.8.0.W y n w * . ",
". 6 n n y W 0.8.p.k.k.k.k.k.k.k.k.k.k.k.p.8.0.W y n n 8 . ",
". 6 y c U :.0.8.p.k.k.k.k.k.k.k.k.k.k.k.p.8.0.:.U c y 6 . ",
". 6 e d -.0.8.8.p.k.k.k.k.k.k.k.k.k.k.k.p.8.8.0.-.d e 6 . ",
". 6 e d @.0.8.8.p.k.k.k.k.k.k.k.k.k.k.k.p.8.8.0.-.d e 6 . ",
". 6 e d -.0.8.8.p.k.k.k.k.k.k.k.k.k.k.k.p.8.8.0.-.d e 6 . ",
". 6 e d -.0.8.8.p.k.k.k.k.k.k.k.k.k.k.k.p.8.8.0.-.d e 6 . ",
". 6 e d -.0.8.8.p.k.k.k.h.a.a.a.h.k.k.k.p.8.8.0.-.d e 6 . ",
". 6 e d -.0.8.8.p.k.k.a.+./ ~ / +.p.k.k.p.8.8.0.@.d e 6 . ",
". 6 e d -.0.8.8.p.k.k.y.x F ~ F x y.k.k.p.8.8.0.@.d e 6 . ",
". 6 e d -.0.8.8.p.k.k.0.M _ +._ M 0.k.k.p.8.8.0.@.d e 6 . ",
". 6 e d -.0.8.8.p.k.k.0.M _ +._ M 0.k.k.p.8.8.0.-.d e 6 . ",
". 6 e d -.0.8.8.p.k.k.0.M _ +._ M 0.k.k.p.8.8.0.-.d e 6 . ",
". 6 e d @.0.8.8.p.k.f.+.B ' #.] B } a.k.p.8.8.0.@.d e 6 . ",
". 6 e d @.0.8.8.p.k.4.B _ ,.,.,._ M ,.k.p.8.8.0.@.d e 6 . ",
". 6 e d -.0.8.8.p.k.' D >.,.,.,.>.F ' k.p.8.8.0.-.d e 6 . ",
". 6 e d -.0.8.8.p.k.' F ,.,.,.,.,.F ' k.p.8.8.0.@.d e 6 . ",
". 6 e d -.0.8.8.p.k.' F ,.,.,.,.,.F ' k.p.8.8.0.-.d e 6 . ",
". 6 e d @.0.8.8.p.k.' F ,.,.,.,.,.F ' k.p.8.8.0.@.d e 6 . ",
". 9 n n h { 0.8.p.k.' F ,.,.,.,.,.F ' k.p.8.0.{ h n n 8 . ",
". 6 n n y Q 0.8.p.k.' F ,.,.,.,.,.F ' k.p.8.0.Q y n n 6 . ",
". * 0 y y W 0.8.p.k.' F ,.,.,.,.,.F ' k.p.8.0.W y y 0 : . ",
"  . . : & P 0.0.a.k.' F ,.,.,.,.,.F } k.a.0.0.P & : . .   ",
"        g Y } } &.;.~ F ,.,.,.,.,.F ~ ;.&.} } Y g         ",
"          D Z Z Z Z x F ,.,.,.,.,.F x Z Z Z Z D           ",
"                    k F ,.,.,.,.,.F k                     ",
"                    k F ,.,.,.,.,.F k                     ",
"                    k Z _ _ _ _ _ Z k                     ",
"                      l l l l l l l                       "
};
